<svg width="70" height="70" viewBox="0 0 70 70" fill="none" xmlns="http://www.w3.org/2000/svg">
<rect x="1" y="1" width="68" height="68" rx="34" stroke="#5F5A5A" stroke-width="2"/>
<path d="M49.9828 19.4138H48.1724V17.6034C48.1724 17.2655 47.9069 17 47.569 17C47.231 17 46.9655 17.2655 46.9655 17.6034V19.4138H42.1379V17.6034C42.1379 17.2655 41.8724 17 41.5345 17C41.1966 17 40.931 17.2655 40.931 17.6034V19.4138H36.1034V17.6034C36.1034 17.2655 35.8379 17 35.5 17C35.1621 17 34.8966 17.2655 34.8966 17.6034V19.4138H30.069V17.6034C30.069 17.2655 29.8034 17 29.4655 17C29.1276 17 28.8621 17.2655 28.8621 17.6034V19.4138H24.0345V17.6034C24.0345 17.2655 23.769 17 23.431 17C23.0931 17 22.8276 17.2655 22.8276 17.6034V19.4138H21.0172C19.3517 19.4138 18 20.7776 18 22.431V48.9828C18 50.6483 19.3517 52 21.0172 52H49.9828C51.6483 52 53 50.6483 53 48.9828V22.431C53 20.7776 51.6483 19.4138 49.9828 19.4138ZM21.0172 20.6207H22.8276V22.431C22.8276 22.769 23.0931 23.0345 23.431 23.0345C23.769 23.0345 24.0345 22.769 24.0345 22.431V20.6207H28.8621V22.431C28.8621 22.769 29.1276 23.0345 29.4655 23.0345C29.8034 23.0345 30.069 22.769 30.069 22.431V20.6207H34.8966V22.431C34.8966 22.769 35.1621 23.0345 35.5 23.0345C35.8379 23.0345 36.1034 22.769 36.1034 22.431V20.6207H40.931V22.431C40.931 22.769 41.1966 23.0345 41.5345 23.0345C41.8724 23.0345 42.1379 22.769 42.1379 22.431V20.6207H46.9655V22.431C46.9655 22.769 47.231 23.0345 47.569 23.0345C47.9069 23.0345 48.1724 22.769 48.1724 22.431V20.6207H49.9828C50.9845 20.6207 51.7931 21.4293 51.7931 22.431V27.8621H19.2069V22.431C19.2069 21.4414 20.0155 20.6207 21.0172 20.6207ZM49.9828 50.7931H21.0172C20.0155 50.7931 19.2069 49.9845 19.2069 48.9828V29.069H51.7931V48.9828C51.7931 49.9845 50.9845 50.7931 49.9828 50.7931Z" fill="#5F5A5A"/>
<path d="M30.0689 47.1723C32.0603 47.1723 33.6896 45.543 33.6896 43.5516V35.1034C33.6896 33.112 32.0603 31.4827 30.0689 31.4827C28.0776 31.4827 26.4482 33.112 26.4482 35.1034V43.5516C26.4482 45.5551 28.0776 47.1723 30.0689 47.1723ZM27.6551 35.1034C27.6551 33.7758 28.7413 32.6896 30.0689 32.6896C31.3965 32.6896 32.4827 33.7758 32.4827 35.1034V43.5516C32.4827 44.8792 31.3965 45.9654 30.0689 45.9654C28.7413 45.9654 27.6551 44.8792 27.6551 43.5516V35.1034Z" fill="#5F5A5A"/>
<path d="M37.914 45.9655C37.5761 45.9655 37.3105 46.231 37.3105 46.569C37.3105 46.9069 37.5761 47.1724 37.914 47.1724H43.9485C44.2864 47.1724 44.5519 46.9069 44.5519 46.569C44.5519 46.231 44.2864 45.9655 43.9485 45.9655H42.1381V32.0862C42.1381 32.05 42.1381 32.0017 42.1261 31.9655C42.1261 31.9535 42.114 31.9293 42.114 31.9173C42.114 31.8931 42.1019 31.881 42.0899 31.8569C42.0778 31.8328 42.0657 31.8207 42.0536 31.7966C42.0416 31.7845 42.0416 31.7604 42.0295 31.7483C41.9812 31.6879 41.933 31.6276 41.8605 31.5793C41.8485 31.5673 41.8243 31.5673 41.8123 31.5552C41.7881 31.5431 41.7761 31.531 41.7519 31.519C41.7278 31.5069 41.7157 31.5069 41.6916 31.4948C41.6795 31.4948 41.6554 31.4828 41.6433 31.4828C41.6071 31.4707 41.5709 31.4707 41.5347 31.4707C41.4985 31.4707 41.4623 31.4707 41.4261 31.4828C41.4019 31.4828 41.3899 31.4948 41.3778 31.4948C41.3537 31.4948 41.3416 31.5069 41.3174 31.519C41.2933 31.531 41.2812 31.5431 41.2571 31.5552C41.245 31.5673 41.2209 31.5673 41.2088 31.5793C41.1726 31.6035 41.1485 31.6276 41.1123 31.6517L37.4916 35.2724C37.2502 35.5138 37.2502 35.8879 37.4916 36.1293C37.6123 36.25 37.7692 36.3104 37.914 36.3104C38.0588 36.3104 38.2278 36.25 38.3364 36.1293L40.9312 33.5345V45.9655H37.914Z" fill="#5F5A5A"/>
<path d="M49.9831 48.6809H21.0175C20.8486 48.6809 20.7158 48.8137 20.7158 48.9826C20.7158 49.1516 20.8486 49.2844 21.0175 49.2844H49.9831C50.152 49.2844 50.2848 49.1516 50.2848 48.9826C50.2848 48.8137 50.152 48.6809 49.9831 48.6809Z" fill="#5F5A5A"/>
<path d="M28.8622 35.1036C28.8622 34.4398 29.4053 33.8967 30.0691 33.8967C30.2381 33.8967 30.3709 33.7639 30.3709 33.5949C30.3709 33.426 30.2381 33.2932 30.0691 33.2932C29.0674 33.2932 28.2588 34.1018 28.2588 35.1036C28.2588 35.2725 28.3915 35.4053 28.5605 35.4053C28.7295 35.4053 28.8622 35.2725 28.8622 35.1036Z" fill="#5F5A5A"/>
<path d="M21.0175 26.3534H49.9831C50.152 26.3534 50.2848 26.2207 50.2848 26.0517C50.2848 25.8828 50.152 25.75 49.9831 25.75H21.0175C20.8486 25.75 20.7158 25.8828 20.7158 26.0517C20.7158 26.2207 20.8486 26.3534 21.0175 26.3534Z" fill="#5F5A5A"/>
</svg>
